Land_normalized_Motion_pl12
version=1
nRows=12
nColumns=43
inDegrees=yes
endheader
time		pelvis_tilt		pelvis_list		pelvis_rotation		pelvis_tx		pelvis_ty		pelvis_tz		hip_flexion_r		hip_adduction_r		hip_rotation_r		knee_angle_r		ankle_angle_r		subtalar_angle_r		mtp_angle_r		hip_flexion_l		hip_adduction_l		hip_rotation_l		knee_angle_l		ankle_angle_l		subtalar_angle_l		mtp_angle_l		lumbar_extension		lumbar_bending		lumbar_rotation		neck_flexion		neck_lateral_bending		neck_rotation		arm_flex_r		arm_add_r		arm_rot_r		elbow_flex_r		pro_sup_r		wrist_flex_r		wrist_dev_r		hand_finger_flex_r		arm_flex_l		arm_add_l		arm_rot_l		elbow_flex_l		pro_sup_l		wrist_flex_l		wrist_dev_l		hand_finger_flex_l		
1.208333		0.842949		2.082784		85.208411		0.002253		0.466108		0.536104		91.481372		-1.537152		-3.048906		-133.227545		19.588771		4.198805		34.383723		88.884320		-14.144849		-0.209396		-132.955186		24.471286		9.280556		32.736741		-63.380978		-1.388349		1.907422		10.257894		-4.227774		3.800062		64.652621		-35.288299		19.548153		74.762086		117.310987		-17.406489		2.164343		0.544369		51.500649		-35.785202		7.399354		83.729026		96.875350		-19.387011		-5.630221		29.836359		
1.211566		0.829065		2.000572		85.129325		0.002402		0.462236		0.535504		92.101900		-1.443667		-3.106577		-133.777895		19.527969		3.916245		34.220757		89.502479		-14.265300		-0.096594		-133.543687		24.433368		9.351574		32.511346		-63.612733		-1.512063		2.042439		10.722729		-4.073381		3.670237		66.947511		-35.079249		20.394088		74.511777		117.259877		-17.483871		2.425415		-0.082076		54.052231		-36.018092		8.888954		83.639281		96.371486		-19.716199		-5.337584		29.451270		
1.214798		0.770531		1.822707		85.117031		0.002185		0.457871		0.534765		92.915293		-1.439438		-2.994608		-134.407939		19.449642		3.927099		34.178350		90.284174		-14.194153		0.012841		-134.207083		24.373664		9.318029		32.395046		-63.688803		-1.542295		2.051962		11.131725		-4.041486		3.618000		69.221553		-34.804153		21.205078		74.223558		117.437435		-17.082410		2.453455		-0.224344		56.388684		-36.326271		10.170090		83.621873		96.447942		-19.463481		-5.128239		29.307174		
1.218030		0.685336		1.665349		85.117135		0.001809		0.453727		0.534070		93.692074		-1.488160		-2.858765		-135.002907		19.322455		3.959641		34.144683		91.031619		-14.047642		0.065696		-134.856021		24.276733		9.200743		32.252133		-63.781096		-1.558554		2.058753		11.493727		-4.020489		3.548843		71.487480		-34.533856		22.054497		73.881785		117.634736		-16.758121		2.569226		-0.438724		58.756641		-36.506337		11.479808		83.491106		96.484838		-19.310252		-4.840516		29.001350		
1.221263		0.586984		1.504426		85.126288		0.001382		0.449661		0.533387		94.481276		-1.567939		-2.691982		-135.583270		19.187892		4.038616		34.134007		91.773172		-13.861779		0.075800		-135.499706		24.172142		9.013435		32.093599		-63.853979		-1.565245		2.054797		11.806111		-4.021976		3.462717		73.690180		-34.256847		22.916256		73.546876		117.820594		-16.441264		2.704866		-0.655668		61.085479		-36.630505		12.770546		83.315410		96.553515		-19.162825		-4.578278		28.604877		
1.224495		0.472866		1.337847		85.134466		0.000987		0.445649		0.532665		95.271415		-1.640265		-2.509182		-136.155596		19.062018		4.149380		34.145894		92.516841		-13.655913		0.073934		-136.134113		24.060969		8.796227		31.926492		-63.903927		-1.576475		2.049807		12.086426		-4.036071		3.361685		75.848953		-33.968599		23.776629		73.189459		117.985304		-16.106240		2.836577		-0.845413		63.371516		-36.698528		14.042557		83.091389		96.691038		-18.968780		-4.387402		28.166685		
1.227727		0.287215		1.286915		85.181030		0.000497		0.442060		0.531985		95.913860		-1.799657		-2.238994		-136.700021		18.989824		4.340656		34.229556		93.082976		-13.405427		-0.066815		-136.720367		23.808493		8.364453		31.450870		-64.070848		-1.632371		2.063547		12.297230		-3.928240		3.152282		77.968304		-33.896361		24.808193		72.911040		117.912186		-15.992370		3.189070		-1.478906		65.816569		-36.618967		15.594582		82.713147		96.638833		-18.992586		-4.351360		26.845239		
1.230960		0.222683		1.025345		85.108857		0.000359		0.438077		0.531275		96.760154		-1.775628		-2.136762		-137.208628		18.909189		4.445173		34.258286		93.926806		-13.306717		0.062373		-137.316805		23.809079		8.358499		31.313823		-63.999819		-1.677182		2.096934		12.535079		-3.999402		3.057281		79.981922		-33.446288		25.520063		72.468699		118.047217		-15.467374		3.151075		-1.455853		67.912429		-36.659026		16.634510		82.503879		96.990872		-18.418346		-4.307820		26.675208		
1.234192		0.175143		0.861298		85.070110		0.000172		0.434404		0.530522		97.452064		-1.816167		-2.054571		-137.708285		18.880498		4.566382		34.296357		94.645146		-13.201453		0.195075		-137.875556		23.712603		8.356007		31.170971		-64.013464		-1.703185		2.177171		12.688607		-3.982899		2.947052		81.968408		-33.086698		26.304887		72.012902		118.199873		-15.006015		3.146340		-1.447172		70.042175		-36.558853		17.706120		82.173573		97.430750		-17.887278		-4.287213		26.430191		
1.237424		0.153542		0.729687		85.033472		0.000001		0.430946		0.529759		98.054417		-1.868545		-1.998757		-138.176969		18.916199		4.717539		34.341306		95.305883		-13.126989		0.350023		-138.396175		23.616828		8.381556		31.030953		-64.058299		-1.728891		2.303349		12.813107		-3.914257		2.804950		83.901096		-32.760762		27.085451		71.560449		118.331517		-14.597608		3.146133		-1.435665		72.165889		-36.387418		18.778747		81.795878		97.939732		-17.337432		-4.254460		26.168583		
1.240657		0.165077		0.626863		85.004249		-0.000178		0.427718		0.528980		98.553154		-1.922293		-1.966855		-138.611839		19.032297		4.904216		34.388037		95.907033		-13.079572		0.526922		-138.882744		23.546393		8.451957		30.897172		-64.126859		-1.744570		2.472175		12.908248		-3.792147		2.647723		85.774587		-32.461677		27.860974		71.092872		118.439138		-14.229002		3.118012		-1.407138		74.261000		-36.138199		19.820884		81.369140		98.508650		-16.740789		-4.146343		25.925379		
1.243889		0.197558		0.536941		84.977949		-0.000402		0.424695		0.528215		98.970979		-1.981037		-1.947387		-139.005511		19.220677		5.107635		34.429295		96.460029		-13.048504		0.705732		-139.335574		23.510998		8.541637		30.771413		-64.205288		-1.749687		2.663817		12.977746		-3.639231		2.487806		87.601683		-32.172704		28.630622		70.607613		118.534645		-13.893616		3.049999		-1.362121		76.304745		-35.831177		20.809078		80.913369		99.095949		-16.117496		-3.960856		25.723985		
